<svg xmlns="http://www.w3.org/2000/svg" width="25" height="18" viewBox="0 0 25 18" fill="none">
<path d="M5.32135 18C6.09112 18 6.8483 17.8997 7.59297 17.6992C8.33763 17.4986 9.00696 17.1518 9.60102 16.6588C10.1951 16.1657 10.672 15.4763 11.0318 14.5905C11.3915 13.7047 11.5714 12.5766 11.5714 11.2061C11.5714 9.16714 11.0945 7.58356 10.1407 6.45543C9.18686 5.3273 7.75612 4.76323 5.84847 4.76323C5.49706 4.76323 5.07454 4.81337 4.58088 4.91365C4.08722 5.01393 3.60195 5.14762 3.12504 5.31476C3.02966 5.34818 2.93745 5.38331 2.84842 5.42006L2.60957 5.52785L2.61047 0H0V15.1421C0 15.727 0.146408 16.2033 0.439262 16.571C0.732117 16.9387 1.12953 17.227 1.63155 17.4359C2.13356 17.6448 2.70252 17.7911 3.33839 17.8747C3.97427 17.9582 4.63528 18 5.32135 18ZM5.19585 15.7187C4.79424 15.7187 4.39682 15.6894 4.00356 15.6309C3.61031 15.5724 3.27984 15.4512 3.01209 15.2674C2.74433 15.0836 2.61047 14.8245 2.61047 14.4903V7.72145C3.04554 7.47075 3.5183 7.28692 4.02866 7.16992C4.53903 7.05291 5.01179 6.99443 5.44685 6.99443C6.23333 6.99443 6.87759 7.16157 7.37961 7.49582C7.88162 7.83007 8.25813 8.31478 8.50914 8.94986C8.76015 9.58494 8.88565 10.3705 8.88565 11.3064C8.88565 12.1254 8.78525 12.8649 8.58444 13.5251C8.38364 14.1852 8.01548 14.7159 7.48001 15.117C6.94454 15.5181 6.18313 15.7187 5.19585 15.7187Z" fill="#203AA9"/>
<path d="M18.6136 18C19.5399 18 20.3735 17.923 21.1146 17.7691C21.8556 17.6152 22.5209 17.4167 23.1104 17.1736V14.8161C22.8072 14.9619 22.4451 15.1118 22.0241 15.2657C21.603 15.4196 21.1441 15.5452 20.6472 15.6425C20.1504 15.7397 19.6157 15.7883 19.0431 15.7883C17.7631 15.7883 16.7947 15.4359 16.1378 14.731C15.5748 14.1269 15.2531 13.2817 15.1727 12.1954L15.168 12.1183H24.0704C24.0855 10.8642 23.9404 9.75113 23.635 8.77921L23.5272 8.46044C23.1483 7.41534 22.5377 6.60113 21.6957 6.01782C20.8535 5.43451 19.7504 5.14286 18.3862 5.14286C16.5336 5.14286 15.0894 5.68971 14.0537 6.78342C13.0179 7.87713 12.5 9.48529 12.5 11.6079C12.5 12.9852 12.7484 14.1518 13.2453 15.1077C13.7421 16.0637 14.4494 16.7848 15.3673 17.2709C16.2852 17.757 17.3673 18 18.6136 18ZM21.3721 10.2225H15.2332L15.2442 10.1344C15.293 9.7828 15.3614 9.46946 15.4493 9.19432L15.5189 8.99514C15.7631 8.35513 16.121 7.90143 16.5926 7.63408C17.0641 7.36673 17.6367 7.23305 18.3104 7.23305C19.3546 7.23305 20.1209 7.52065 20.6093 8.09587C20.9851 8.53833 21.2312 9.17974 21.3478 10.0201L21.3721 10.2225Z" fill="#F84040"/>
</svg>