<svg xmlns="http://www.w3.org/2000/svg" width="37" height="41" viewBox="0 0 37 41" fill="none">
<path fill-rule="evenodd" clip-rule="evenodd" d="M20.0849 35.4564C11.5688 35.4564 4.9808 28.7615 4.9808 20.0314L4.98317 20.0302C4.98317 11.5141 11.8386 4.76564 20.5687 4.76564C25.71 4.76564 29.9942 6.47979 32.5119 8.24748V11.2466L32.298 11.4071C28.9243 9.04988 25.282 7.92528 20.6757 7.92528C13.6051 7.92528 8.46379 12.8526 8.46379 20.0302C8.46379 27.2078 13.2306 32.2956 20.0861 32.2956C26.2984 32.2956 29.1906 28.5998 29.1371 25.4401H20.4605V22.227H32.4038V24.3156C32.4038 30.1535 28.601 35.4564 20.0849 35.4564ZM20.0849 40.2233C8.56959 40.2233 0 31.6002 0 20.0314C0 8.83708 8.94404 0 20.5663 0C25.4401 0 29.4569 1.12454 32.5095 3.32013V6.47979C29.3499 4.2842 25.1727 3.15966 20.5663 3.15966C10.8722 3.15966 3.37482 10.3361 3.37482 20.0302C3.37482 29.7243 10.4977 37.0624 20.0849 37.0624C28.815 37.0624 34.0097 31.8676 34.0097 23.512V20.6198H20.4593V17.5137H37.0101V22.9771C37.0101 33.6353 30.5826 40.2233 20.0849 40.2233Z" fill="#00B14F"/>
</svg>