<svg xmlns="http://www.w3.org/2000/svg" width="26" height="26" viewBox="0 0 26 26" fill="none">
<rect width="26" height="26" rx="4" fill="black"/>
<path d="M16.955 7C15.6014 6.99961 14.3014 7.56598 13.3332 8.57793L13.8581 9.64485L13.6429 9.83016C13.188 8.98716 12.5362 8.28513 11.7512 7.79291C10.9663 7.30069 10.0752 7.03518 9.16541 7.02246C6.30992 7.02246 4.00033 9.6954 4.00033 12.8288V19.5673C3.99811 19.6247 4.00705 19.682 4.02657 19.7355C4.0461 19.789 4.07579 19.8377 4.11378 19.8783C4.15176 19.9189 4.1972 19.9507 4.24725 19.9716C4.29729 19.9925 4.35085 20.002 4.40452 19.9996H6.47265C6.52317 20.0004 6.57331 19.9903 6.62012 19.97C6.66693 19.9497 6.70944 19.9195 6.74517 19.8813C6.78089 19.8431 6.80909 19.7975 6.82809 19.7475C6.8471 19.6974 6.85653 19.6438 6.85583 19.5897V12.7558C6.85583 11.2003 7.73765 9.94809 9.23889 9.94809C10.6404 9.94809 11.643 11.0712 11.643 12.7277V18.3431C11.6394 18.3988 11.6465 18.4546 11.6638 18.5073C11.6811 18.5599 11.7083 18.6083 11.7437 18.6493C11.7791 18.6903 11.8219 18.7231 11.8696 18.7458C11.9173 18.7684 11.9687 18.7805 12.0209 18.7811H13.9788C14.031 18.7805 14.0825 18.7684 14.1301 18.7458C14.1778 18.7231 14.2207 18.6903 14.256 18.6493C14.2914 18.6083 14.3186 18.5599 14.3359 18.5073C14.3533 18.4546 14.3603 18.3988 14.3567 18.3431V12.7277C14.3335 12.3691 14.38 12.0092 14.4933 11.6708C14.6067 11.3324 14.7844 11.0228 15.0153 10.7616C15.2461 10.5004 15.5251 10.2932 15.8346 10.1532C16.1441 10.0132 16.4773 9.94334 16.8133 9.94809C18.3093 9.94809 19.1439 11.2228 19.1439 12.7558V19.5785C19.148 19.6897 19.1925 19.7948 19.268 19.8714C19.3436 19.948 19.444 19.99 19.5481 19.9884H21.5952C21.6491 19.9917 21.703 19.9827 21.7534 19.9621C21.8038 19.9416 21.8496 19.9098 21.8878 19.869C21.9259 19.8282 21.9556 19.7792 21.9748 19.7253C21.9941 19.6713 22.0024 19.6137 21.9994 19.556V12.8176C21.9994 9.67293 19.7895 7 16.955 7Z" fill="#43FE8D"/>
</svg>