<?xml version="1.0" encoding="utf-8"?>
<!-- Generator: Adobe Illustrator 27.5.0, SVG Export Plug-In . SVG Version: 6.00 Build 0)  -->
<svg version="1.1" id="a" xmlns="http://www.w3.org/2000/svg" xmlns:xlink="http://www.w3.org/1999/xlink" x="0px" y="0px"
	 viewBox="0 0 1291.2 1410.1" style="enable-background:new 0 0 1291.2 1410.1;" xml:space="preserve">
<style type="text/css">
	.st0{fill:#84CC16;}
	.st1{fill:#052E16;}
</style>
<path class="st0" d="M635.6,1110.7h173.8V1257c0,84.5-68.6,153.1-153.1,153.1l0,0c-88.3,0-160-71.7-160-160l0,0
	C496.3,1173.1,558.7,1110.7,635.6,1110.7L635.6,1110.7z"/>
<path class="st0" d="M670.1,299.4H496.3V153.1C496.3,68.6,564.9,0,649.4,0l0,0c88.3,0,160,71.7,160,160l0,0
	C809.5,237,747,299.4,670.1,299.4L670.1,299.4z"/>
<path class="st1" d="M1011.2,482H280c-123.2,0-223,99.8-223,223s99.8,223,223,223h954.2V705C1234.2,581.9,1134.4,482,1011.2,482z
	 M469.3,763c0,30.2-24.5,54.7-54.7,54.7l0,0c-30.2,0-54.7-24.5-54.7-54.7V647c0-30.2,24.5-54.7,54.7-54.7l0,0
	c30.2,0,54.7,24.5,54.7,54.7V763z M945.9,763c0,30.2-24.5,54.7-54.7,54.7l0,0c-30.2,0-54.7-24.5-54.7-54.7V647
	c0-30.2,24.5-54.7,54.7-54.7l0,0c30.2,0,54.7,24.5,54.7,54.7V763z"/>
</svg>
