<?xml version="1.0" encoding="UTF-8"?>
<svg id="a" xmlns="http://www.w3.org/2000/svg" viewBox="0 0 1291.17 1410.06">
  <path d="m626.68,1081.68h190.66v160.41c0,92.71-75.27,167.97-167.97,167.97h0c-96.88,0-175.54-78.66-175.54-175.54h0c0-84.36,68.49-152.85,152.85-152.85h0Z" style="fill: #fff;"/>
  <path d="m672.49,328.38h-190.66v-160.41C481.83,75.26,557.1,0,649.8,0h0c96.88,0,175.54,78.66,175.54,175.54h0c0,84.36-68.49,152.85-152.85,152.85h0Z" style="fill: #fff;"/>
  <path d="m1046.57,460.43H244.6C109.51,460.43,0,569.94,0,705.03s109.51,244.6,244.6,244.6h1046.57v-244.6c0-135.09-109.51-244.6-244.6-244.6Zm-594.37,308.2c0,33.14-26.86,60-60,60h0c-33.14,0-60-26.86-60-60v-127.2c0-33.14,26.86-60,60-60h0c33.14,0,60,26.86,60,60v127.2Zm522.77,0c0,33.14-26.86,60-60,60h0c-33.14,0-60-26.86-60-60v-127.2c0-33.14,26.86-60,60-60h0c33.14,0,60,26.86,60,60v127.2Z" style="fill: #fff;"/>
</svg>