<svg xmlns="http://www.w3.org/2000/svg" width="124" height="121" viewBox="0 0 124 121" fill="none">
  <path d="M52.548 100.699C51.3732 99.7734 49.8834 99.3645 48.4085 99.5641L41.6391 100.479C39.4043 100.78 37.2445 99.508 36.3845 97.3764L33.6797 90.6912C33.1748 89.4391 32.2049 88.4478 30.98 87.9317L24.4405 85.1666C22.3557 84.282 21.1108 82.0795 21.4058 79.7947L22.3307 72.6086C22.5057 71.2695 22.1507 69.9153 21.3458 68.8421L17.0312 63.0972C15.6563 61.2728 15.6563 58.7272 17.0312 56.8978L21.3458 51.1528C22.1457 50.0847 22.5007 48.7303 22.3307 47.3913L21.4058 40.2052C21.1108 37.9206 22.3557 35.7178 24.4405 34.8336L30.98 32.0737C32.1999 31.5524 33.1698 30.5608 33.6797 29.3137L36.3795 22.6286C37.2445 20.4973 39.3992 19.2247 41.6341 19.5263L48.6635 20.4718C49.9734 20.6455 51.2983 20.2826 52.3482 19.4649L57.9678 15.0541C59.7525 13.6486 62.2424 13.6486 64.032 15.0541L69.6516 19.4649C70.6965 20.2826 72.0213 20.6455 73.3313 20.4615L80.3607 19.516C82.5954 19.2145 84.7554 20.4871 85.6154 22.6184L88.3203 29.3035C88.8252 30.5557 89.795 31.5473 91.0199 32.0635L97.5592 34.8285C99.6441 35.7127 100.889 37.9155 100.594 40.2001L99.6693 47.3861C99.4942 48.7252 99.8493 50.0796 100.654 51.1528L104.969 56.8978C106.344 58.7221 106.344 61.2673 104.969 63.0972L100.814 68.6324C99.9092 69.8334 99.5091 71.3565 99.7044 72.8644L100.594 79.7897C100.889 82.0745 99.6441 84.282 97.5592 85.1611L91.0199 87.9261C89.795 88.4427 88.8252 89.434 88.3203 90.6861L85.6154 97.3713C84.7505 99.5025 82.5954 100.775 80.3607 100.474L73.3313 99.5283C72.0213 99.3493 70.6965 99.7123 69.6467 100.535L64.0271 104.946C62.2424 106.351 59.7525 106.351 57.9629 104.946L52.548 100.699Z" fill="#84CC16"/>
  <circle cx="48.5" cy="118.5" r="2" fill="#84CC16" stroke="#84CC16"/>
  <circle cx="104.5" cy="19.5" r="4" fill="#84CC16" stroke="#84CC16"/>
  <circle cx="106.5" cy="33.5" r="2" fill="#84CC16" stroke="#84CC16"/>
  <circle cx="8.5" cy="78.5" r="1" fill="#84CC16" stroke="#84CC16"/>
  <path d="M27 25C23.6667 20.6667 16.1 12.2 12.5 13C8.00003 14 7.00003 15.5 8.50003 18C10 20.5 21.5 23 11.5 1.5M24 101C22 101.5 17.8 103.4 17 107C16.2 110.6 13 111.167 11.5 111M97.5 94.5C98.5 95.5 104 91.5 110.5 102.5C117 113.5 121 109.5 122.5 109.5" stroke="#84CC16" stroke-width="2" stroke-linecap="round"/>
  <circle cx="56.5" cy="7.5" r="2" fill="#84CC16" stroke="#84CC16"/>
  <circle cx="64.5" cy="2.5" r="1" fill="#84CC16" stroke="#84CC16"/>
  <circle cx="114.5" cy="75.5" r="2" fill="#84CC16" stroke="#84CC16"/>
  <circle cx="3" cy="64" r="2.5" fill="#84CC16" stroke="#84CC16"/>
  <path d="M76 50L55.375 71L46 61.4545" stroke="white" stroke-width="6" stroke-linecap="round" stroke-linejoin="round"/>
</svg>